<?xml version="1.0" encoding="UTF-8" standalone="no"?>
<svg
   width="435.59999999999997"
   height="113.37473821124112"
   viewBox="0 0 369.6666666666667 96.21409907886931"
   class="css-1j8o68f"
   version="1.1"
   id="svg13"
   sodipodi:docname="logo_green_black.svg"
   xmlns:inkscape="http://www.inkscape.org/namespaces/inkscape"
   xmlns:sodipodi="http://sodipodi.sourceforge.net/DTD/sodipodi-0.dtd"
   xmlns="http://www.w3.org/2000/svg"
   xmlns:svg="http://www.w3.org/2000/svg">
  <sodipodi:namedview
     id="namedview15"
     pagecolor="#ffffff"
     bordercolor="#000000"
     borderopacity="0.25"
     inkscape:showpageshadow="2"
     inkscape:pageopacity="0.0"
     inkscape:pagecheckerboard="0"
     inkscape:deskcolor="#d1d1d1" />
  <defs
     id="SvgjsDefs1231" />
  <g
     id="SvgjsG1232"
     featurekey="symbolFeature-0"
     transform="matrix(27.003674886133748,0,0,27.003674886133748,-25.84251893912325,-19.38864003614857)"
     fill="#1e4b6a">
    <g
       id="g7">
      <path
         fill="#1e4b6a"
         d="M2.501,4.281l-1.543-0.89L0.957,1.61l1.542-0.892l1.543,0.891l0.001,1.78L2.501,4.281z M1.408,3.132   l1.093,0.63L3.593,3.13L3.592,1.869L2.499,1.238L1.407,1.87L1.408,3.132z"
         id="path3" />
      <path
         fill="#1e4b6a"
         d="M2.5,3.433L1.693,2.967L1.692,2.034l0.807-0.466l0.809,0.466v0.932L2.5,3.433z M2.143,2.707L2.5,2.913   l0.357-0.207V2.294L2.5,2.088L2.143,2.294V2.707z"
         id="path5" />
    </g>
  </g>
  <g
     id="SvgjsG1233"
     featurekey="nameFeature-0"
     transform="matrix(1.431229369815531,0,0,1.431229369815531,99.04980797665343,6.626737974804762)"
     fill="#000000">
    <path
       d="M11.6 11.440000000000001 l6.68 19.64 l0.08 0 l6.32 -19.64 l8.84 0 l0 28.56 l-5.88 0 l0 -20.24 l-0.08 0 l-7 20.24 l-4.84 0 l-7 -20.04 l-0.08 0 l0 20.04 l-5.88 0 l0 -28.56 l8.84 0 z M48.480000000000004 18.76 c3.3067 0 5.92 1.0067 7.84 3.02 s2.88 4.6468 2.88 7.9 c0 3.28 -0.98 5.9132 -2.94 7.9 s-4.5532 2.98 -7.78 2.98 c-3.28 0 -5.88 -1.0067 -7.8 -3.02 s-2.88 -4.6332 -2.88 -7.86 c0 -3.3333 0.98 -5.9868 2.94 -7.96 s4.54 -2.96 7.74 -2.96 z M43.480000000000004 29.68 c0 2.1067 0.42668 3.7333 1.28 4.88 s2.0933 1.72 3.72 1.72 c1.68 0 2.94 -0.58668 3.78 -1.76 s1.26 -2.7866 1.26 -4.84 c0 -2.1333 -0.43332 -3.7733 -1.3 -4.92 s-2.1267 -1.72 -3.78 -1.72 c-1.6 0 -2.8267 0.57332 -3.68 1.72 s-1.28 2.7867 -1.28 4.92 z M74.75999999999999 18.76 c2.64 0 4.5532 0.66676 5.74 2.0001 s1.78 3.4533 1.78 6.36 l0 12.88 l-5.68 0 l0 -11.72 c0 -1.7067 -0.27332 -2.9734 -0.82 -3.8 s-1.4867 -1.24 -2.82 -1.24 c-1.5467 0 -2.6667 0.46668 -3.36 1.4 s-1.04 2.4666 -1.04 4.6 l0 10.76 l-5.68 0 l0 -20.68 l5.4 0 l0 2.88 l0.12 0 c1.4133 -2.2933 3.5333 -3.44 6.36 -3.44 z M96.64 18.76 c3.3067 0 5.92 1.0067 7.84 3.02 s2.88 4.6468 2.88 7.9 c0 3.28 -0.98 5.9132 -2.94 7.9 s-4.5532 2.98 -7.78 2.98 c-3.28 0 -5.88 -1.0067 -7.8 -3.02 s-2.88 -4.6332 -2.88 -7.86 c0 -3.3333 0.98 -5.9868 2.94 -7.96 s4.54 -2.96 7.74 -2.96 z M91.64 29.68 c0 2.1067 0.42668 3.7333 1.28 4.88 s2.0933 1.72 3.72 1.72 c1.68 0 2.94 -0.58668 3.78 -1.76 s1.26 -2.7866 1.26 -4.84 c0 -2.1333 -0.43332 -3.7733 -1.3 -4.92 s-2.1267 -1.72 -3.78 -1.72 c-1.6 0 -2.8267 0.57332 -3.68 1.72 s-1.28 2.7867 -1.28 4.92 z M122.67999999999999 18.76 c2.8533 0 5.1332 1 6.84 3 s2.56 4.7068 2.56 8.12 c0 3.12 -0.82 5.68 -2.46 7.68 s-3.8467 3 -6.62 3 c-2.72 0 -4.7868 -1.04 -6.2 -3.12 l-0.08 0 l0 9.84 l-5.68 0 l0 -27.96 l5.4 0 l0 2.64 l0.08 0 c1.36 -2.1333 3.4133 -3.2 6.16 -3.2 z M116.52 29.72 c0 2.0267 0.42672 3.6267 1.28 4.8 s2.08 1.76 3.68 1.76 c1.6533 0 2.8866 -0.58668 3.7 -1.76 s1.22 -2.7733 1.22 -4.8 c0 -2.08 -0.44 -3.7133 -1.32 -4.9 s-2.1067 -1.78 -3.68 -1.78 s-2.78 0.58668 -3.62 1.76 s-1.26 2.8133 -1.26 4.92 z M145.51999999999998 18.76 c3.3067 0 5.92 1.0067 7.84 3.02 s2.88 4.6468 2.88 7.9 c0 3.28 -0.98 5.9132 -2.94 7.9 s-4.5532 2.98 -7.78 2.98 c-3.28 0 -5.88 -1.0067 -7.8 -3.02 s-2.88 -4.6332 -2.88 -7.86 c0 -3.3333 0.98 -5.9868 2.94 -7.96 s4.54 -2.96 7.74 -2.96 z M140.51999999999998 29.68 c0 2.1067 0.42668 3.7333 1.28 4.88 s2.0933 1.72 3.72 1.72 c1.68 0 2.94 -0.58668 3.78 -1.76 s1.26 -2.7866 1.26 -4.84 c0 -2.1333 -0.43332 -3.7733 -1.3 -4.92 s-2.1267 -1.72 -3.78 -1.72 c-1.6 0 -2.8267 0.57332 -3.68 1.72 s-1.28 2.7867 -1.28 4.92 z M165.76 11.440000000000001 l0 28.56 l-5.68 0 l0 -28.56 l5.68 0 z M173.92 19.32 l4.68 14.16 l0.08 0 l4.52 -14.16 l5.88 0 l-8.64 23.28 c-0.61332 1.6267 -1.46 2.8134 -2.54 3.56 s-2.58 1.12 -4.5 1.12 c-0.82668 0 -2.0134 -0.06668 -3.56 -0.2 l0 -4.68 c1.0133 0.13332 2.0133 0.2 3 0.2 c0.8 0 1.42 -0.24668 1.86 -0.74 s0.66 -1.1133 0.66 -1.86 c0 -0.42668 -0.08 -0.85336 -0.24 -1.28 l-7.28 -19.4 l6.08 0 z"
       id="path10" />
  </g>
</svg>
